<svg xmlns="http://www.w3.org/2000/svg" viewBox="0 0 549.94 300"><title>Asset 8</title><path d="M442,139.26c3.13-2.94,6.25-5.9,9.48-8.73,7.24-6.37,14.57-12.63,21.78-19,1.78-1.58,3.31-3.89,1.81-6-.58-.82-3.75-.6-5.25.13a200,200,0,0,0-19.65,10.45c-15.22,9.69-30.26,19.7-39.77,35.8a8,8,0,0,1-2.7,3c-2.24,1.22-4.66,2.72-7.08,2.85-4,.23-8.1-.52-13-.93,1.07-1.15,1.38-1.54,1.74-1.87,12.93-12,23.59-25.8,32.91-40.69a29.23,29.23,0,0,0,3-7.19c.35-1.17-.17-2.6-.3-3.91a17,17,0,0,0-3.77.78c-8.77,4-16.11,10.11-23.32,16.38-.94.82-1.92,1.61-3.39,2.84,1.4-5.29,5.78-9.06,3.48-14.88-3,1.1-5.85,1.82-8.41,3.16-17,8.92-32.78,19.4-44.27,35.25-2.28,3.15-5.12,4.76-9.19,3.89-2.45-.52-5-.5-7.49-.87-1.64-.25-3.24-.76-4.5-1.07,8.93-7.06,17.87-13.81,26.44-21,7-5.85,13.54-12.2,20.2-18.43.68-.63,1.28-2.28.93-2.85-.47-.75-1.87-1-2.93-1.25a4.37,4.37,0,0,0-2.11.44c-10.42,3.79-20.36,8.67-28.4,16.33-7.56,7.2-14.3,15.27-21.41,22.94-.61.65-1.37,1.76-2,1.71-4.94-.38-10,0-15.06-2.71,5.43-4.35,10.58-8.44,15.69-12.58,9.23-7.48,17.94-15.49,24.77-25.31.78-1.12.82-2.75,1.2-4.14-1.53,0-3.3-.63-4.54-.05-19,8.76-35.49,20.58-46.7,38.76-.46.75-1.59,1.66-2.3,1.58-6.58-.79-13.14-1.78-19.71-2.71l0-.94a11.47,11.47,0,0,1,1.4-1c17-9.2,29.92-22.75,40.65-38.55a18.89,18.89,0,0,0,2.56-6c.64-2.6-.54-3.73-3.07-2.88A38.12,38.12,0,0,0,302,93.52c-17.21,10.5-31.42,24-41.26,41.8-.37.67-1,1.64-1.61,1.67-3.07.17-6.15.08-9.23.08l-.27-1c.94-1.21,2-2.37,2.82-3.64,6.28-9.27,12.86-18.35,18.63-27.93,3-4.93,4.59-10.7,6.5-16.21a4.67,4.67,0,0,0-1-4.2c-.73-.59-2.92.07-4.15.74-8.27,4.52-13.88,11.69-18.71,19.51-5.51,8.93-10.41,18.17-13.4,28.3-.66,2.24-1.75,3.18-4.25,2.92-3.43-.36-6.92-.05-10.36-.36-3.66-.33-7.28-1-11.72-1.7,1.86-1.59,2.94-2.57,4.07-3.47,12.92-10.21,25.7-20.62,36.06-33.53a50.92,50.92,0,0,0,6.56-11.58c1.19-2.74-.37-4.37-3.28-3.56a19.49,19.49,0,0,0-6.57,3.45c-9.59,7.47-19,15.11-28.56,22.68-.91.72-1.91,1.33-2.87,2l-.66-.64c.66-1.11,1.27-2.26,2-3.33,3.49-5.1,7.2-10.06,10.49-15.29,3.56-5.66,6.86-11.49,10-17.4.71-1.33.27-3.26.36-4.92-1.66.2-3.35.29-5,.63a9.85,9.85,0,0,0-2.53,1.22c-22.4,12.32-36.31,31.36-44,55.36a36.08,36.08,0,0,1-3.33,7.39c-.69,1.16-2.26,1.79-3.91,3-.55-3.33-.8-5.62-1.31-7.85-6.24-27.15-22.84-46.56-45.84-61.12-.88-.56-2.79-.83-3.32-.31a4.17,4.17,0,0,0-.93,3.56c1.8,5.43,3.25,11.13,6,16.08,9.55,17.19,21.39,32.79,34.59,47.36.73.81,1.38,1.69,2.3,2.81l-4.06,1.13c-17.12,4.83-34.29,9.49-51.33,14.57-9.72,2.9-19.31,6.33-27.58,12.56-8.48,6.39-12,15.12-11.89,25.43,0,4.84,3.93,10.49,8.06,11.44,6.66,1.54,9,1.22,13.37-4.33a146.6,146.6,0,0,1,28.81-28.4c10.61-7.76,21.94-14.22,34.64-18.07,3.9-1.18,6.48-.38,9.19,2.87a169.2,169.2,0,0,0,15.11,15.91c10.63,9.81,22.71,17.15,37.16,19.95,1.46.28,3,.27,5.25.47a22,22,0,0,0-2-3.59,139.44,139.44,0,0,0-9.48-10.46c-7.95-7.44-17.38-12.68-27-17.69a64.73,64.73,0,0,1-9.36-6.27c-1.27-1-2-2.66-3.22-4.34A64.81,64.81,0,0,1,210.76,145c2.48.39,3.75,1.61,5,3.63,5.42,9.08,10.76,18.22,16.57,27.05,8.4,12.75,18.06,24.45,30.62,33.42.78.55,2,.48,3,.7.12-1.06.65-2.28.3-3.15-6.44-15.92-14.1-31.1-26.68-43.26-4.22-4.08-8.33-8.28-12.36-12.54a7.41,7.41,0,0,1-1.93-3.77c-.1-.71,1.21-2.35,1.89-2.35,7.65-.06,15.3.1,22.95.25,1.94,0,2.9.92,3,3.1a63.33,63.33,0,0,0,7.09,25.87c5.62,10.76,11.72,21.26,17.71,31.82.57,1,1.86,1.6,2.82,2.39.34-1.21,1.06-2.46,1-3.62-1.9-19.83-7.13-38.47-19.79-54.4a31.14,31.14,0,0,1-2.29-4c4.45-.7,7,.5,9,4.37a113.17,113.17,0,0,0,38,43.14,19.19,19.19,0,0,0,3.56,1.48,17.42,17.42,0,0,0-.37-3.76c-2.68-8.3-7.95-14.9-14-21-5.39-5.42-10.87-10.77-16.17-16.29a37.32,37.32,0,0,1-3.59-5.23l.7-1.19c4.87,1.41,9.74,2.78,14.58,4.27a3.16,3.16,0,0,1,1.47,1.53c7.48,13.92,18.69,24.64,30.19,35.1,4.21,3.83,8.8,7.13,14.47,8.53a29.3,29.3,0,0,0,3.43.42,8.22,8.22,0,0,0,0-1.61,14.6,14.6,0,0,0-.71-2.07,41.33,41.33,0,0,0-11.79-15.69c-6.35-5.3-13-10.22-19.49-15.38a59.32,59.32,0,0,1-6.26-5.71c-.65-.69-.57-2.06-.83-3.13a9.12,9.12,0,0,1,2.8-.55c5.61.72,11.22,1.48,16.78,2.46A6.49,6.49,0,0,1,325,158c4.33,5.12,8.37,10.48,12.76,15.55,6.32,7.3,13,14.21,21.25,19.49a18.24,18.24,0,0,0,11.27,3.28c2.62-.18,3.4-1.45,2.23-3.75a8.83,8.83,0,0,0-2.12-2.68c-5.78-4.84-11.57-9.66-17.44-14.39-5.3-4.27-10.79-8.31-16-12.68-1.56-1.3-2.48-3.37-3.69-5.08l.63-.75c4.65.5,9.29,1.14,14,1.48a26.36,26.36,0,0,1,18.46,8.89c2.38,2.65,4.84,5.23,7.18,7.92,9.42,10.84,21.43,16.86,35.46,19.13,2,.33,4.06.5,6.09.75l.73-1a18.25,18.25,0,0,0-2.86-3.37c-11.13-8-22.33-16-33.5-23.94-2.08-1.49-4.12-3-6.78-5,1.76,0,2.67-.08,3.55,0,10.17,1.1,19.83,3.44,28.8,8.88a69.76,69.76,0,0,0,46.74,9.76c1.33-.18,2.55-1.21,3.82-1.84-.94-1.23-1.84-2.49-2.85-3.66a3.22,3.22,0,0,0-1.41-.66l-27.35-9.07c-.94-.31-1.89-.6-3.53-1.12l3.6-1.22c10-3.32,20.12-6.48,30.08-10,9.5-3.36,18.61-7.61,26.63-13.86,2.42-1.88,4.43-4,5-8-15.76,2.11-29.89,9.41-46.2,11.32C440.67,140.79,441.24,139.94,442,139.26ZM208.08,122.92a22.42,22.42,0,0,1-10.25,11c-1.54.77-3.07,0-2.27-1.83,2-4.54,4.68-8.63,9.37-10.9a17.09,17.09,0,0,1,2.27-.62C207.51,121.34,208.34,122.38,208.08,122.92Zm178.33,10.37a29.35,29.35,0,0,0-5,15,16.09,16.09,0,0,1-.56,2.76c-.64,2.68-1.8,3.93-5.05,3.36-7.28-1.27-14.67-2-21.5-2.84L387,132A7.2,7.2,0,0,1,386.41,133.29Zm26.25,25.28c.5-4.29,7.8-10.93,11.59-10.49,1.29.15,2.45,1.39,4.12,2.41C423.26,154.59,418.59,157.65,412.66,158.57Z" fill="#fff"/><path d="M534,99.72c-8.71-13.28-19.69-24.47-32.11-34.27-28.39-22.39-60.8-36.78-95.14-47.07C363.88,5.55,319.93.07,272.32,0A461.21,461.21,0,0,0,154.63,15.19C121.77,24,90.45,36.39,62,55.37,43.07,68,26.27,82.89,14.33,102.53c-18.82,31-19.11,62.38-.83,93.71,10.48,18,25.25,32,42,44.07,25.58,18.45,54,31,84,40.26,35.2,10.93,71.33,16.74,108.07,18.67,50.67,2.66,100.7-1.64,149.78-15,31.7-8.6,61.92-20.66,89.49-38.8,17.84-11.74,33.7-25.58,45.92-43.28C555.22,169.64,555.68,132.8,534,99.72Zm-13.52,95.73c-12.16,18.73-28.71,32.91-47.26,44.93-28.6,18.53-60,30.5-92.84,38.84A423.61,423.61,0,0,1,274.6,292.11,423.19,423.19,0,0,1,163.95,278c-34.51-9.21-67.29-22.45-96.53-43.43-14.84-10.65-28-23-38.11-38.37C9.39,166,9.62,132.84,30,102.86,42.6,84.22,59.37,70,78.16,58c31.51-20.14,66.08-32.7,102.33-41.08A414.57,414.57,0,0,1,286.55,6.43C339.74,8,391.16,18,439.78,40.27c26.12,12,50.07,27.21,69.37,48.9,12,13.44,20.92,28.54,24.34,46.46C537.62,157.38,532.34,177.18,520.47,195.46Z" fill="#fff"/></svg>