<?xml version="1.0" encoding="utf-8"?>
<!-- Generator: Adobe Illustrator 19.1.0, SVG Export Plug-In . SVG Version: 6.00 Build 0)  -->
<svg version="1.1" id="Layer_1" xmlns="http://www.w3.org/2000/svg" xmlns:xlink="http://www.w3.org/1999/xlink" x="0px" y="0px"
	 viewBox="0 0 430 90.9" style="enable-background:new 0 0 430 90.9;" xml:space="preserve">
<style type="text/css">
	.st0{fill:#FFFFFF;}
	.st1{font-family:'TrumpGothicWest-Bold';}
	.st2{font-size:73.2487px;}
</style>
<g>
	<path class="st0" d="M36.2,48.5c-2.1,2.8-2.6,4.7-2.5,5.2c0.1,0.3,0.4,0.5,0.9,0.5c1.6,0,3.4-1.7,5.5-5c-0.1-0.3-0.2-0.5-0.3-0.8
		c-0.2-1,0-2,0.5-2.9c0.2-0.3,0.5-0.5,0.8-0.7c-0.1-0.1-0.2-0.2-0.3-0.2C40.2,44.8,38.5,45.5,36.2,48.5"/>
	<path class="st0" d="M53.6,44.8c-0.6,0-2.3,0.8-4.5,3.8c-2.1,2.8-2.6,4.7-2.5,5.2c0.1,0.3,0.4,0.5,0.9,0.5c1.6,0,3.5-1.7,5.5-5
		c-0.1-0.3-0.3-0.5-0.3-0.8c-0.2-1,0-2,0.5-2.9c0.2-0.3,0.4-0.5,0.7-0.7C53.8,44.8,53.7,44.7,53.6,44.8"/>
	<path class="st0" d="M43.1,0C19.3,0,0,19.3,0,43.1s19.3,43.1,43.1,43.1C67,86.3,86.3,67,86.3,43.1S67,0,43.1,0 M20.3,58.6
		c-0.8,0-1.6,0.2-2.4,0.4c3-6.1,13.1-26.3,14-27.4c-1.7-0.3-2.1-0.4-3.7-0.6c-2.2-0.4-4.4-0.5-6.6-0.4c-2.1,0.1-3.7,0.5-5,1.2
		c-0.1,0.1-0.1,0.1,0,0.2c0,0.1,0.1,0.1,0.2,0.1c2.3-0.1,2.9,1.6,2.8,2.7c-0.2,1.8-1.3,2.9-3.2,3.1c-0.7,0.1-1.5,0-2.1-0.3
		c-0.8-0.4-1.5-1-1.8-1.8c-0.7-1.5-0.6-3.3,0.2-4.8c1.7-2.6,5-3.8,9.6-3.8c3.2,0,7.1,0.6,9.7,0.9c2.1,0.2,3.7,0.5,5.4,0.6
		c0.4,0,1,0,1.8,0.1c2.4,0.1,7.3,0.2,11.2-0.8l0.9,2.3c-5.2,1.9-11.7,2-15,1.8L23.2,59C22.2,58.7,21.3,58.6,20.3,58.6 M60.5,50.3
		c-1.1,3-1.3,4.3-1.3,5.1c0,0.7,0.1,1.1,1,1c1.1-0.1,2.1-0.4,3.1-0.9c0.8-0.4,1.6-0.9,1.7-0.9l0.8,2.4c-1.6,1-5.1,2.6-7.2,2
		c-1.4-0.4-2.3-1.2-2.6-2.7c-0.3-1.2,0-3,0.8-5.2c-0.6,0.2-1.3,0.2-1.9,0c-2.1,3.6-4.8,5.6-7.5,5.6c-1.8,0-3.3-1.2-3.8-2.9
		c-0.2-0.8-0.2-1.7-0.1-2.5c-0.5,0-1-0.1-1.5-0.3c-2.1,3.6-4.8,5.7-7.6,5.7c-1.8,0-3.3-1.2-3.8-2.9c-0.7-2.5,0.5-5.7,2.9-8.2
		c2.3-2.3,4.7-3.6,6.9-3.6c1.5,0,2.7,0.9,3.1,2.3c0.3,1.2,0.2,2.8-0.5,4.5c0.2,0.1,0.5,0.1,0.7,0.1c0.1,0,0.3,0,0.4,0
		c0.6-1.2,1.4-2.3,2.3-3.2c2.3-2.3,4.7-3.6,6.9-3.6c1.5,0,2.7,0.9,3.1,2.3c0.3,1.2,0.2,2.6-0.4,4.2c0.3,0,0.6,0,0.8,0
		c0.3,0,0.7-0.1,1-0.2c1.4-3.1,3-6.1,4.7-9.1c3.5-6.1,7.3-9.2,9.8-9.2c1.2,0,2.8,1.2,2.9,3.1C75.2,36.2,71.6,44.6,60.5,50.3"/>
	<path class="st0" d="M70.5,34c-0.8,0.8-2.5,3-3.7,4.9c-1.9,2.9-4.3,7.2-4.3,7.2c2.3-1.6,4.3-3.6,6.2-5.7c2.5-2.8,3.2-4.6,3.6-5.9
		C72.7,32.7,71.8,32.6,70.5,34"/>
	<path class="st0" d="M430,43.1c0,12-9.7,21.8-21.8,21.8c-12,0-21.8-9.7-21.8-21.8c0-12,9.7-21.8,21.8-21.8
		C420.3,21.4,430,31.1,430,43.1"/>
	<path class="st0" d="M299.1,43.1c0,12-9.7,21.8-21.8,21.8c-12,0-21.8-9.7-21.8-21.8c0-12,9.7-21.8,21.8-21.8
		C289.4,21.4,299.1,31.1,299.1,43.1"/>
	<polygon class="st0" points="342.6,62.8 331.3,43.1 319.9,23.5 342.6,23.5 365.3,23.5 354,43.1 	"/>
	<polygon class="st0" points="241.5,23.4 221.8,23.4 222,33.3 202.4,23.4 202.4,62.9 241.5,62.9 	"/>
	<text transform="matrix(1 0 0 1 128.9313 72.699)" class="st0 st1 st2">+</text>
</g>
</svg>
